<?xml version="1.0" standalone="no"?>
<!DOCTYPE svg PUBLIC "-//W3C//DTD SVG 20010904//EN"
 "http://www.w3.org/TR/2001/REC-SVG-20010904/DTD/svg10.dtd">
<svg version="1.0" xmlns="http://www.w3.org/2000/svg"
 width="512.000000pt" height="512.000000pt" viewBox="0 0 512.000000 512.000000"
 preserveAspectRatio="xMidYMid meet">
<metadata>
Created by potrace 1.16, written by Peter Selinger 2001-2019
</metadata>
<g transform="translate(0.000000,512.000000) scale(0.100000,-0.100000)"
fill="#000000" stroke="none">
<path d="M938 5012 c-62 -117 -200 -413 -195 -419 8 -7 267 499 267 522 0 22
-24 -11 -72 -103z"/>
<path d="M715 4888 c-80 -168 -125 -283 -178 -458 -39 -129 -119 -458 -115
-471 2 -5 27 84 56 197 104 398 160 560 267 774 30 61 53 110 49 110 -3 0 -38
-69 -79 -152z"/>
<path d="M4700 4903 c-324 -36 -757 -127 -1105 -233 -496 -152 -798 -262
-1285 -470 -190 -81 -412 -175 -495 -210 -385 -162 -639 -325 -885 -569 -82
-81 -106 -109 -62 -70 121 105 189 156 342 258 150 100 307 187 317 177 4 -3
-7 -23 -23 -44 -48 -59 -49 -65 -8 -38 122 81 233 146 353 209 75 39 150 83
168 98 70 60 546 273 813 364 180 61 298 87 367 83 l48 -3 -55 -36 c-40 -25
-87 -43 -170 -64 -167 -40 -328 -90 -470 -144 -197 -76 -490 -203 -490 -213 0
-5 8 -7 18 -4 324 95 473 137 672 191 322 88 371 107 535 210 241 152 457 244
810 344 160 45 440 113 640 155 67 14 49 18 -35 9z"/>
<path d="M1394 4828 l-19 -23 23 19 c21 18 27 26 19 26 -2 0 -12 -10 -23 -22z"/>
<path d="M4915 4796 c-215 -45 -661 -182 -699 -215 -10 -9 -22 -26 -27 -38
-11 -30 -48 -46 -164 -72 -487 -108 -941 -241 -1388 -406 -120 -44 -164 -67
-86 -45 43 13 149 13 149 1 0 -12 -31 -22 -230 -71 -443 -110 -814 -248 -1074
-400 -90 -53 -108 -60 -126 -50 -18 10 -34 4 -108 -35 -225 -121 -618 -418
-717 -542 -62 -78 -63 -82 -1 -15 59 64 252 215 339 266 42 24 107 50 107 42
0 -1 -30 -27 -67 -57 -37 -30 -93 -79 -124 -110 -32 -31 -134 -122 -226 -202
-92 -80 -184 -162 -203 -183 l-35 -38 45 35 c45 35 402 288 429 304 8 4 41 14
74 21 l60 12 -44 -39 c-24 -21 -125 -94 -224 -160 -99 -67 -184 -126 -190
-131 -5 -6 46 19 115 54 69 36 222 109 340 164 118 54 282 137 365 183 287
159 499 256 699 320 230 74 404 100 686 102 208 2 184 12 -60 25 l-145 8 75 9
c91 10 224 3 387 -20 102 -14 130 -15 169 -5 42 11 54 10 128 -13 46 -13 104
-34 130 -46 l48 -21 -29 -30 c-15 -16 -54 -47 -87 -69 -67 -45 -103 -49 -216
-23 l-69 15 47 59 c92 114 92 131 0 43 -47 -45 -96 -83 -109 -85 -13 -2 -55 0
-94 3 -218 21 -225 21 -225 -4 0 -12 -10 -40 -23 -62 -47 -82 -138 -111 -191
-59 -14 15 -26 31 -26 37 0 5 -9 -1 -19 -15 -11 -13 -50 -37 -88 -53 -218 -91
-539 -279 -609 -356 -27 -29 -8 -23 125 41 68 33 124 60 126 60 2 0 -8 -39
-20 -86 -93 -335 -14 -640 223 -866 114 -109 224 -169 377 -204 92 -21 273
-14 362 14 84 27 202 92 280 154 71 56 88 79 71 96 -9 9 -5 19 14 39 89 95
164 279 174 430 9 122 -9 224 -66 368 l-11 29 -20 -31 c-57 -90 -264 -168
-378 -142 -87 19 -133 94 -107 170 10 30 11 39 2 39 -21 0 -64 54 -76 96 -16
53 -1 103 41 139 40 33 102 33 229 0 116 -29 153 -42 255 -89 80 -37 80 -37
139 -132 32 -52 75 -137 96 -189 41 -106 53 -126 44 -74 -19 111 -81 238 -152
313 l-37 39 40 -23 c186 -109 374 -273 484 -420 67 -90 133 -213 155 -291 30
-102 -12 -210 -128 -326 -62 -61 -89 -79 -196 -131 -292 -140 -592 -231 -855
-262 -240 -27 -927 17 -1082 69 -66 23 -295 122 -291 127 2 1 46 -12 98 -30
117 -41 151 -51 130 -37 -25 16 -248 90 -267 89 -10 -1 -85 27 -168 62 -106
44 -200 75 -317 104 -93 23 -168 44 -168 47 0 3 28 21 63 40 56 32 62 38 61
66 -2 35 -45 103 -95 148 -32 30 -32 30 4 -14 61 -74 62 -143 1 -160 -43 -12
-93 1 -134 36 -38 32 -54 63 -69 132 -10 46 -9 58 5 80 9 14 154 162 323 329
327 324 355 360 151 192 -426 -349 -581 -531 -540 -631 8 -18 16 -27 18 -20 2
7 17 -6 32 -29 15 -23 45 -60 66 -82 l38 -40 -55 27 c-30 15 -65 37 -79 49
-19 16 -17 12 5 -12 31 -35 93 -72 120 -72 8 0 15 -5 15 -11 0 -9 -31 -10
-116 -5 -64 4 -130 9 -148 12 -50 7 38 -19 274 -81 264 -69 439 -127 725 -239
348 -137 341 -134 395 -189 28 -28 50 -54 50 -59 0 -7 -40 7 -136 47 -20 8
-39 14 -41 12 -2 -2 46 -26 108 -53 62 -27 115 -57 121 -67 6 -13 13 -16 17
-9 5 8 56 -8 154 -48 172 -70 344 -121 512 -152 207 -38 491 -28 605 22 23 9
22 10 -10 5 -74 -10 -227 -25 -270 -25 -44 0 -47 2 -88 59 -46 62 -97 108
-164 146 l-40 23 68 -5 c101 -7 260 -41 329 -69 89 -37 92 -38 65 -15 -14 12
-54 37 -89 55 l-65 33 65 11 c128 22 149 24 182 18 18 -3 60 -22 92 -41 31
-19 51 -28 44 -18 -21 25 -100 73 -123 74 -35 2 56 27 99 28 22 0 67 -10 99
-24 34 -14 53 -18 45 -10 -8 7 -36 22 -63 33 l-50 19 55 21 c30 11 90 36 134
55 44 20 97 38 117 42 54 10 133 -12 185 -52 l46 -35 -22 31 c-29 40 -71 69
-123 85 l-43 13 57 12 c89 19 168 1 248 -57 l35 -25 -35 37 c-40 44 -90 71
-144 82 -58 10 -22 25 78 31 93 6 146 -5 202 -43 l39 -26 -24 26 c-46 49 -117
76 -200 76 -75 0 -79 -1 -251 -84 -205 -99 -293 -135 -412 -170 -270 -78 -516
-93 -728 -44 l-55 12 140 7 c441 21 824 123 1227 325 214 108 360 123 441 47
24 -23 28 -24 19 -7 -19 37 -78 81 -141 105 -68 27 -77 39 -28 39 28 1 29 2
13 11 -10 6 -47 9 -82 7 -35 -2 -64 -2 -64 0 0 2 17 34 39 70 21 37 47 88 56
114 19 52 11 51 110 8 l50 -21 -30 33 c-16 18 -46 51 -66 73 -20 22 -49 58
-65 80 -22 31 -11 24 48 -33 90 -85 171 -126 283 -144 82 -13 213 -1 275 24
31 13 25 14 -66 10 -141 -6 -290 31 -369 92 -13 10 8 6 60 -11 73 -24 94 -27
235 -27 88 0 166 5 180 11 21 9 12 11 -52 12 -86 1 -202 22 -245 44 -27 15
-26 15 42 21 39 4 102 14 141 22 72 15 206 72 219 94 4 6 -11 2 -34 -9 -73
-38 -166 -53 -281 -48 -130 6 -204 27 -225 65 -14 24 -15 25 -9 3 6 -23 6 -23
-54 9 -61 32 -100 65 -90 76 3 3 30 0 59 -6 30 -6 60 -11 67 -12 7 -1 10 -10
8 -22 -4 -14 -1 -12 6 4 8 20 22 29 61 38 72 17 78 30 9 18 -33 -5 -67 -6 -78
-2 -15 6 -9 12 36 37 30 16 72 47 93 67 41 39 82 100 74 108 -2 2 -12 -8 -22
-23 -31 -49 -98 -94 -162 -107 -29 -7 -33 -4 -51 31 l-20 38 63 57 c71 65 105
126 104 184 -1 74 -16 84 -20 14 -6 -81 -44 -142 -120 -191 -51 -32 -52 -33
-66 -14 -8 11 -53 73 -100 138 l-85 118 20 22 c46 51 67 138 42 177 -7 11 -10
3 -10 -30 0 -43 -31 -130 -46 -130 -4 0 -19 10 -32 23 l-25 22 18 -28 c21 -33
14 -44 -51 -76 l-46 -23 -58 63 -57 64 53 58 c34 36 54 67 54 82 0 40 -107
114 -240 164 -64 25 -60 21 100 -82 l121 -79 -33 -45 c-54 -75 -57 -75 -134
-4 -121 109 -323 232 -481 292 -22 8 -21 10 28 60 57 58 92 123 114 206 21 78
18 109 -4 47 -26 -72 -48 -110 -87 -154 l-35 -38 -52 14 c-195 52 -537 64
-727 27 -127 -25 -148 -33 -192 -71 -18 -17 -51 -34 -72 -38 l-39 -7 7 48 c10
81 21 89 138 114 153 31 260 40 363 31 163 -16 358 -30 362 -26 7 6 -163 35
-302 51 -71 8 -197 15 -280 16 -181 1 -180 1 181 74 272 55 427 96 440 117 5
8 -8 9 -46 5 -56 -7 -140 1 -140 13 0 25 290 122 660 219 220 57 421 100 390
82 -15 -9 -214 -85 -495 -190 -347 -129 -399 -172 -143 -117 226 48 936 275
1128 360 221 99 582 299 665 371 38 32 39 34 15 34 -14 0 -74 -11 -135 -23z
m-2885 -1010 c0 -6 -93 -37 -97 -32 -2 2 15 11 39 19 47 17 58 19 58 13z m48
-108 c-11 -35 -23 -66 -27 -70 -3 -4 -59 -23 -124 -43 -89 -27 -122 -33 -137
-25 -25 13 -63 67 -56 79 5 8 179 67 311 105 28 7 51 14 52 15 1 1 -8 -27 -19
-61z m792 52 c86 -9 225 -33 273 -47 18 -5 18 -6 -1 -19 -11 -8 -43 -25 -71
-39 -50 -25 -51 -25 -110 -10 -95 24 -249 45 -338 45 l-83 0 17 35 c9 19 23
36 32 38 31 9 187 7 281 -3z m-320 -9 c0 -5 -8 -19 -19 -32 -16 -20 -30 -24
-91 -27 -79 -5 -85 4 -27 35 49 25 137 41 137 24z m-180 -35 c-12 -14 -35 -27
-51 -30 -16 -4 -44 -9 -61 -12 l-33 -6 19 21 c19 21 91 49 130 50 18 1 18 -1
-4 -23z m-659 -113 c6 -16 19 -37 30 -49 l20 -21 -47 -18 c-25 -9 -67 -18 -93
-18 -49 -1 -141 21 -141 33 0 8 188 98 208 99 7 1 17 -11 23 -26z m-181 -137
c-11 -11 -150 12 -150 25 0 4 15 12 33 17 24 6 43 3 79 -12 28 -13 43 -25 38
-30z m-55 -62 l30 -7 -35 -9 c-44 -13 -151 5 -200 33 -19 11 -28 18 -18 15 9
-2 24 1 33 8 13 9 30 7 88 -11 40 -12 86 -25 102 -29z m1978 -22 c44 -26 108
-71 144 -101 74 -60 73 -62 -18 -86 -81 -22 -161 -26 -194 -11 l-30 13 43 13
c45 14 122 73 110 85 -4 4 -20 -2 -37 -14 -47 -34 -148 -55 -196 -42 -49 14
-75 30 -58 37 20 9 64 46 60 51 -3 2 -22 -5 -43 -16 -48 -26 -69 -27 -29 -2
17 10 55 44 85 75 35 36 60 54 70 51 8 -3 50 -27 93 -53z m-2231 -17 c38 -14
78 -25 89 -25 36 0 19 -17 -43 -45 -68 -31 -200 -45 -246 -28 -22 8 -19 12 50
66 40 31 75 57 77 57 2 0 35 -11 73 -25z m-186 -175 c67 0 64 -10 -16 -50 -53
-27 -229 -84 -236 -77 -7 7 172 137 184 132 7 -3 38 -5 68 -5z m2709 -61 c29
-31 44 -54 38 -60 -16 -16 -137 -23 -174 -10 -48 16 -89 48 -69 54 8 3 33 10
55 17 23 6 52 20 65 31 14 10 28 19 31 19 4 0 28 -23 54 -51z m-140 20 c-41
-19 -120 -25 -143 -10 -8 5 6 6 35 4 28 -3 64 1 88 10 57 21 67 19 20 -4z
m480 -269 c14 -23 25 -43 23 -45 -2 -2 -34 -9 -70 -15 -81 -12 -139 -2 -207
38 l-46 27 67 7 c38 5 83 14 100 22 l33 15 -45 -7 c-73 -11 -184 -6 -216 11
l-29 15 46 -5 c47 -5 136 24 160 53 14 18 10 18 -34 -1 -49 -20 -114 -18 -162
4 l-40 19 36 1 c50 1 154 35 213 69 l49 29 48 -97 c26 -54 59 -116 74 -140z
m-1875 75 c13 -14 21 -25 18 -25 -2 0 -15 11 -28 25 -13 14 -21 25 -18 25 2 0
15 -11 28 -25z m-78 -42 c44 -32 82 -62 86 -68 3 -5 -11 3 -31 18 -20 15 -37
24 -37 20 0 -5 25 -28 56 -52 105 -82 25 -70 -147 21 -72 38 -75 42 -75 74 1
19 3 34 6 34 3 0 22 -11 43 -25 41 -29 48 -23 15 12 -39 42 2 25 84 -34z m133
-3 c10 -11 16 -20 13 -20 -3 0 -13 9 -23 20 -10 11 -16 20 -13 20 3 0 13 -9
23 -20z m272 -9 c55 -26 77 -67 71 -138 -5 -57 -35 -100 -90 -129 -66 -34
-157 -3 -185 63 -30 74 9 165 88 205 43 23 64 22 116 -1z m-261 -62 c11 -19
-29 7 -51 32 l-20 23 32 -23 c18 -12 35 -27 39 -32z m-225 -7 c52 -26 118 -57
147 -69 32 -13 52 -27 52 -37 0 -21 -14 -20 -162 4 -180 30 -192 34 -196 54
-3 13 1 17 15 13 10 -3 36 -8 58 -11 l40 -5 -30 14 c-16 8 -36 14 -43 15 -7 0
-10 5 -6 11 3 6 0 16 -7 21 -10 7 -9 8 6 3 109 -39 153 -41 66 -2 -29 12 -49
26 -45 30 10 9 0 13 105 -41z m2112 -62 l18 -30 -33 1 c-18 0 -55 7 -83 13
-49 12 -49 13 -20 20 17 4 44 11 60 15 17 5 32 9 35 10 3 1 14 -12 23 -29z
m-179 -90 c31 -12 76 -43 107 -73 30 -29 86 -69 124 -89 39 -21 64 -38 56 -38
-28 0 -144 64 -213 118 -40 32 -96 74 -123 94 -28 20 -59 47 -70 59 -11 13 0
7 23 -13 24 -20 67 -46 96 -58z m-1954 40 c52 -6 111 -15 130 -20 31 -7 27 -8
-35 -10 l-70 -3 79 -9 c144 -16 121 -27 -56 -28 -91 0 -173 -3 -182 -6 -13 -5
-16 3 -16 46 0 51 0 52 28 46 15 -3 70 -10 122 -16z m207 -36 c-3 -3 -12 -4
-19 -1 -8 3 -5 6 6 6 11 1 17 -2 13 -5z m11 -59 c-2 -3 -45 -14 -94 -25 l-89
-20 65 6 c36 2 80 7 98 11 97 17 -39 -59 -216 -121 -57 -20 -108 -36 -113 -36
-5 0 -9 9 -9 19 0 12 13 24 38 34 42 18 34 22 -16 8 -28 -8 -32 -7 -32 9 0 25
6 28 102 50 95 21 68 26 -34 6 -38 -7 -68 -9 -68 -5 0 5 24 12 53 16 l52 8
-54 5 c-59 5 -80 26 -34 33 41 6 357 8 351 2z m680 -71 c32 -8 64 -18 72 -21
8 -4 20 -5 25 -4 6 1 5 -3 -1 -9 -9 -9 -32 -6 -95 11 -46 12 -88 26 -93 30
-16 14 30 11 92 -7z m-658 -8 c0 -7 -13 -19 -30 -26 -16 -7 -30 -16 -30 -21 0
-5 16 -2 37 6 20 8 39 13 42 9 6 -6 -6 -17 -102 -94 -45 -37 -208 -140 -221
-140 -3 0 -6 7 -6 15 0 8 18 27 40 41 22 15 40 28 40 30 0 6 -33 -9 -68 -29
-28 -17 -35 -18 -43 -6 -18 28 -8 45 46 73 30 17 53 32 51 33 -2 2 -27 -5 -56
-16 -74 -28 -85 -14 -13 16 48 21 302 121 311 123 1 0 2 -6 2 -14z m742 -58
c76 -18 133 -35 127 -39 -12 -7 36 -49 57 -49 8 0 14 -7 14 -15 0 -19 5 -19
-66 5 -85 28 -88 24 -12 -15 50 -26 66 -39 61 -51 -3 -9 -11 -13 -22 -8 -9 4
-28 8 -43 9 -14 2 -32 6 -40 10 -7 3 7 -11 31 -33 33 -31 41 -43 34 -56 -8
-14 -14 -13 -57 14 -62 40 -70 33 -11 -9 25 -18 45 -36 45 -42 0 -14 -12 -11
-40 11 -41 32 -47 23 -10 -15 62 -64 8 -37 -82 40 -48 41 -90 75 -95 75 -4 0
32 -40 81 -89 67 -67 87 -94 82 -107 -6 -15 -15 -9 -62 37 -68 66 -238 259
-228 259 3 0 1 7 -6 15 -18 22 4 18 24 -4 11 -12 13 -20 6 -23 -6 -2 6 -19 26
-38 27 -26 33 -29 25 -12 -6 12 -8 22 -4 22 4 0 -13 20 -37 45 -44 45 -44 61
1 27 13 -10 49 -35 79 -56 54 -38 54 -37 -20 32 -42 40 -71 74 -66 79 5 4 11
3 13 -4 2 -7 11 -9 20 -6 12 5 14 3 8 -7 -5 -9 -4 -11 3 -6 6 4 34 -3 62 -15
77 -33 69 -17 -13 25 -39 21 -61 35 -47 32 14 -4 87 -21 162 -38z m226 -23
c14 -14 -12 -15 -49 -3 -61 20 -63 40 -3 22 26 -8 50 -16 52 -19z m-930 17
c-1 -5 -29 -32 -61 -60 -71 -64 -65 -67 14 -6 53 40 79 49 79 25 0 -4 -23 -39
-51 -77 l-52 -69 68 65 c38 36 61 53 52 38 -23 -37 -21 -45 4 -22 20 18 20 18
13 -11 -13 -59 -62 -162 -122 -258 -61 -100 -94 -115 -40 -19 36 64 30 69 -9
7 -15 -25 -32 -45 -36 -45 -8 0 9 32 56 105 l19 30 -29 -30 c-15 -17 -40 -46
-55 -65 -18 -25 -29 -32 -37 -25 -8 8 -4 21 13 45 60 90 61 97 10 48 -62 -60
-89 -63 -42 -5 55 67 55 76 0 23 -42 -40 -52 -46 -58 -33 -6 16 20 62 51 87 8
7 15 17 15 22 0 6 -20 -8 -45 -31 -50 -46 -51 -47 -59 -26 -3 10 16 32 59 67
64 51 83 79 28 41 -63 -45 -113 -73 -113 -64 0 5 42 39 93 74 50 36 123 90
162 121 70 57 79 63 73 48z m890 -43 c18 -6 30 -15 27 -19 -6 -10 -65 11 -65
22 0 10 1 10 38 -3z m-392 -91 c77 -80 168 -185 203 -235 22 -32 22 -32 1 -43
-19 -10 -22 -9 -19 6 1 3 -10 18 -23 32 -14 15 -32 38 -41 52 -29 42 -19 1 14
-61 18 -33 29 -62 25 -66 -8 -8 -6 -10 -44 57 -57 100 -74 107 -27 11 49 -99
55 -134 10 -57 -34 57 -43 60 -14 4 19 -38 20 -43 5 -53 -9 -7 -13 -15 -9 -18
3 -4 3 -7 -1 -7 -4 0 -23 33 -42 73 -31 64 -35 62 -18 -8 3 -11 -13 16 -35 60
-42 86 -50 94 -25 24 9 -24 17 -69 20 -99 2 -30 5 -64 6 -75 2 -12 -2 -19 -9
-17 -7 1 -18 3 -25 5 -19 4 -99 292 -103 375 -2 39 -2 72 0 72 3 0 18 -26 34
-57 35 -67 41 -58 10 14 -21 49 -18 49 19 -1 28 -36 29 -22 2 22 -32 52 -23
50 18 -4 39 -52 122 -139 122 -127 0 3 -28 43 -62 87 -34 45 -66 87 -71 94 -5
6 -5 12 0 12 4 0 40 -33 79 -72z m25 45 c13 -16 12 -17 -3 -4 -17 13 -22 21
-14 21 2 0 10 -8 17 -17z m-391 -21 c0 -5 -11 -36 -25 -70 -34 -85 -31 -89 11
-12 l35 65 -6 -100 c-3 -55 -13 -153 -22 -217 -15 -109 -17 -116 -35 -107 -16
8 -18 18 -14 62 l6 52 -14 -40 c-8 -22 -15 -47 -15 -56 -1 -9 -8 -16 -16 -16
-8 0 -15 1 -15 2 0 0 9 26 20 58 28 79 24 94 -6 21 -14 -35 -31 -61 -39 -61
-8 0 -15 4 -15 9 0 5 -5 6 -12 2 -7 -5 -9 -2 -6 7 14 35 59 212 55 215 -2 2
-20 -38 -40 -89 -42 -105 -52 -123 -60 -110 -3 5 18 59 48 119 29 60 54 105
54 100 1 -4 22 33 47 83 39 79 64 111 64 83z m107 -112 c16 -135 17 -363 1
-358 -7 3 -16 20 -19 39 l-6 34 -2 -37 c0 -21 -5 -38 -11 -38 -6 0 -11 47 -11
118 l-2 117 -11 -108 c-9 -88 -14 -110 -30 -119 -17 -9 -18 -7 -12 38 3 27 8
87 11 134 7 98 23 237 31 263 4 12 13 17 27 15 20 -3 23 -13 34 -98z m42 68
l9 -33 2 35 2 35 15 -35 c20 -45 103 -373 103 -405 0 -39 -27 -30 -39 13 l-10
37 2 -42 c1 -23 -1 -39 -5 -37 -5 3 -8 15 -9 27 0 12 -7 45 -14 72 l-14 50 5
-76 c5 -76 5 -76 -20 -81 -20 -4 -26 -1 -26 12 0 9 -4 63 -9 121 -15 162 -20
339 -10 339 4 0 13 -15 18 -32z m581 -34 c0 -2 -9 0 -20 6 -11 6 -20 13 -20
16 0 2 9 0 20 -6 11 -6 20 -13 20 -16z m-361 -294 c0 -9 -4 -8 -9 5 -5 11 -9
27 -9 35 0 9 4 8 9 -5 5 -11 9 -27 9 -35z m41 -23 c0 -5 -4 -5 -10 -2 -5 3
-10 14 -10 23 0 15 2 15 10 2 5 -8 10 -19 10 -23z m-1024 -379 c43 -20 160
-125 151 -135 -7 -6 -117 38 -117 47 0 4 -21 31 -46 59 -25 28 -43 51 -40 51
4 0 27 -10 52 -22z m184 -64 c25 -18 65 -54 90 -79 l45 -47 -60 30 c-67 34
-190 150 -145 137 14 -4 45 -22 70 -41z m225 -20 c189 -38 212 -46 266 -91 32
-27 122 -143 116 -149 -13 -13 -312 68 -382 104 -38 19 -223 186 -199 179 11
-3 100 -22 199 -43z m387 -76 c58 -31 157 -118 178 -158 10 -19 8 -20 -42 -20
-103 0 -122 7 -148 57 -13 25 -51 73 -83 106 l-60 60 48 -6 c26 -4 74 -21 107
-39z"/>
<path d="M2170 2460 c-8 -5 -10 -10 -5 -10 6 0 17 5 25 10 8 5 11 10 5 10 -5
0 -17 -5 -25 -10z"/>
<path d="M1319 4763 l-34 -38 38 34 c34 33 42 41 34 41 -2 0 -19 -17 -38 -37z"/>
<path d="M2787 4743 c-48 -19 -86 -37 -84 -39 3 -4 178 64 186 72 11 10 -21 0
-102 -33z"/>
<path d="M486 4633 c-118 -359 -202 -762 -271 -1310 -14 -106 -34 -248 -44
-315 -31 -196 -43 -350 -43 -543 1 -169 18 -358 42 -445 9 -33 9 -32 4 10 -59
484 -56 526 130 1585 121 686 162 891 217 1082 33 117 13 79 -35 -64z"/>
<path d="M1180 4631 c-190 -206 -356 -433 -494 -679 -111 -197 -238 -420 -306
-537 -89 -152 -138 -289 -155 -435 -3 -30 -15 -119 -26 -197 -25 -186 -23
-206 6 -63 89 441 208 708 614 1384 179 298 233 374 369 524 51 56 91 102 88
102 -2 0 -46 -44 -96 -99z"/>
<path d="M2640 4680 c-19 -11 -30 -19 -25 -19 6 0 26 8 45 19 19 11 31 19 25
19 -5 0 -26 -8 -45 -19z"/>
<path d="M2550 4640 c-19 -11 -30 -19 -25 -19 6 0 26 8 45 19 19 11 31 19 25
19 -5 0 -26 -8 -45 -19z"/>
<path d="M2235 4472 c-412 -214 -814 -489 -1005 -687 l-55 -57 75 54 c41 30
165 115 275 188 110 73 261 176 335 228 160 114 406 274 473 308 44 23 58 34
40 34 -5 0 -66 -31 -138 -68z"/>
<path d="M636 4425 c-9 -26 -7 -32 5 -12 6 10 9 21 6 23 -2 3 -7 -2 -11 -11z"/>
<path d="M616 4375 c-9 -26 -7 -32 5 -12 6 10 9 21 6 23 -2 3 -7 -2 -11 -11z"/>
<path d="M596 4325 c-9 -26 -7 -32 5 -12 6 10 9 21 6 23 -2 3 -7 -2 -11 -11z"/>
<path d="M576 4275 c-9 -26 -7 -32 5 -12 6 10 9 21 6 23 -2 3 -7 -2 -11 -11z"/>
<path d="M505 3911 c-41 -83 -126 -315 -125 -343 1 -7 22 46 49 117 26 72 66
172 89 223 22 50 39 92 37 92 -3 0 -25 -40 -50 -89z"/>
<path d="M411 3924 c0 -11 3 -14 6 -6 3 7 2 16 -1 19 -3 4 -6 -2 -5 -13z"/>
<path d="M401 3874 c0 -11 3 -14 6 -6 3 7 2 16 -1 19 -3 4 -6 -2 -5 -13z"/>
<path d="M2793 3483 c9 -2 25 -2 35 0 9 3 1 5 -18 5 -19 0 -27 -2 -17 -5z"/>
<path d="M3371 2623 c-1 -198 -47 -354 -146 -503 -30 -45 -55 -85 -55 -90 0
-4 -19 -35 -41 -69 -23 -34 -39 -64 -36 -67 6 -6 130 141 176 209 105 155 155
352 131 513 -19 128 -29 130 -29 7z"/>
<path d="M181 1964 c0 -11 3 -14 6 -6 3 7 2 16 -1 19 -3 4 -6 -2 -5 -13z"/>
<path d="M1600 1560 c8 -5 20 -10 25 -10 6 0 3 5 -5 10 -8 5 -19 10 -25 10 -5
0 -3 -5 5 -10z"/>
<path d="M4465 1253 c-116 -50 -390 -142 -705 -238 -151 -45 -401 -122 -555
-170 -314 -98 -789 -235 -813 -235 -8 0 -13 -3 -10 -6 3 -3 62 6 130 20 67 14
200 39 293 55 499 90 895 213 1360 421 199 89 385 178 385 184 0 3 -1 6 -2 5
-2 -1 -39 -17 -83 -36z"/>
<path d="M4494 1148 l-19 -23 23 19 c21 18 27 26 19 26 -2 0 -12 -10 -23 -22z"/>
<path d="M4420 1089 c-79 -68 -297 -204 -432 -268 -224 -108 -530 -222 -945
-352 -111 -35 -200 -65 -199 -66 6 -7 369 62 460 87 227 63 585 223 796 355
133 84 383 274 360 274 -3 0 -21 -13 -40 -30z"/>
<path d="M4529 983 l-24 -28 28 24 c15 14 27 26 27 28 0 8 -8 1 -31 -24z"/>
<path d="M4475 940 c-34 -37 -238 -192 -350 -265 -60 -40 -170 -105 -242 -145
-73 -40 -133 -74 -133 -76 0 -5 188 83 249 118 107 60 223 141 329 228 100 82
183 160 171 160 -3 0 -14 -9 -24 -20z"/>
<path d="M2808 393 c7 -3 16 -2 19 1 4 3 -2 6 -13 5 -11 0 -14 -3 -6 -6z"/>
<path d="M2768 383 c7 -3 16 -2 19 1 4 3 -2 6 -13 5 -11 0 -14 -3 -6 -6z"/>
<path d="M2728 373 c7 -3 16 -2 19 1 4 3 -2 6 -13 5 -11 0 -14 -3 -6 -6z"/>
<path d="M2688 363 c7 -3 16 -2 19 1 4 3 -2 6 -13 5 -11 0 -14 -3 -6 -6z"/>
<path d="M2548 333 c7 -3 16 -2 19 1 4 3 -2 6 -13 5 -11 0 -14 -3 -6 -6z"/>
</g>
</svg>